<svg xmlns="http://www.w3.org/2000/svg" viewBox="0 0 1024 1024" role="img" aria-labelledby="title desc">
  <title id="title">KizunaShelf icon</title>
  <desc id="desc">A bookshelf connected to media category nodes.</desc>
  <rect width="1024" height="1024" fill="#ffffff"/>

  <g transform="translate(512 512) scale(1.08) translate(-512 -512)">
  <g fill="none" stroke="#123b70" stroke-linecap="round" stroke-linejoin="round" stroke-width="12">
    <path d="M 238 328 L 512 178 L 786 328"/>
    <path d="M 512 178 L 512 428"/>
    <path d="M 238 328 L 512 428 L 786 328"/>
    <path d="M 180 608 L 512 428 L 842 608"/>
    <path d="M 224 392 L 206 470 L 190 536"/>
    <path d="M 798 392 L 816 470 L 832 536"/>
    <circle cx="370" cy="254" r="16" fill="#123b70" stroke="none"/>
    <circle cx="654" cy="254" r="16" fill="#123b70" stroke="none"/>
    <circle cx="206" cy="470" r="16" fill="#123b70" stroke="none"/>
    <circle cx="816" cy="470" r="16" fill="#123b70" stroke="none"/>
  </g>

  <circle cx="512" cy="182" r="72" fill="#ff5a55"/>
  <g transform="translate(474 144) scale(3.166667)" fill="none" stroke="#ffffff" stroke-linecap="round" stroke-linejoin="round" stroke-width="2.9">
    <path d="M2 9.5a5.5 5.5 0 0 1 9.591-3.676.56.56 0 0 0 .818 0A5.49 5.49 0 0 1 22 9.5c0 2.29-1.5 4-3 5.5l-5.492 5.313a2 2 0 0 1-3 .019L5 15c-1.5-1.5-3-3.2-3-5.5"/>
  </g>

  <circle cx="238" cy="328" r="72" fill="#8b53d8"/>
  <g transform="translate(197 287) scale(3.416667)" fill="none" stroke="#ffffff" stroke-linecap="round" stroke-linejoin="round" stroke-width="2.7">
    <path d="M12 7v14"/>
    <path d="M3 18a1 1 0 0 1-1-1V4a1 1 0 0 1 1-1h5a4 4 0 0 1 4 4 4 4 0 0 1 4-4h5a1 1 0 0 1 1 1v13a1 1 0 0 1-1 1h-6a3 3 0 0 0-3 3 3 3 0 0 0-3-3z"/>
  </g>

  <circle cx="786" cy="328" r="72" fill="#4fc07b"/>
  <g transform="translate(740 274) scale(3.833333)" fill="none" stroke="#ffffff" stroke-linecap="round" stroke-linejoin="round" stroke-width="2.6">
    <line x1="6" x2="10" y1="11" y2="11"/>
    <line x1="8" x2="8" y1="9" y2="13"/>
    <line x1="15" x2="15.01" y1="12" y2="12"/>
    <line x1="18" x2="18.01" y1="10" y2="10"/>
    <path d="M17.32 5H6.68a4 4 0 0 0-3.978 3.59c-.006.052-.01.101-.017.152C2.604 9.416 2 14.456 2 16a3 3 0 0 0 3 3c1 0 1.5-.5 2-1l1.414-1.414A2 2 0 0 1 9.828 16h4.344a2 2 0 0 1 1.414.586L17 18c.5.5 1 1 2 1a3 3 0 0 0 3-3c0-1.545-.604-6.584-.685-7.258-.007-.05-.011-.1-.017-.151A4 4 0 0 0 17.32 5z"/>
  </g>

  <circle cx="180" cy="608" r="72" fill="#ffb020"/>
  <g transform="translate(142 570) scale(3.166667)" fill="none" stroke="#ffffff" stroke-linecap="round" stroke-linejoin="round" stroke-width="2.8">
    <path d="M9 18V5l12-2v13"/>
    <circle cx="6" cy="18" r="3"/>
    <circle cx="18" cy="16" r="3"/>
  </g>

  <circle cx="842" cy="608" r="72" fill="#39aee0"/>
  <g transform="translate(801 567) scale(3.416667)" fill="none" stroke="#ffffff" stroke-linecap="round" stroke-linejoin="round" stroke-width="2.7">
    <path d="M8 2v4"/>
    <path d="M16 2v4"/>
    <rect width="18" height="18" x="3" y="4" rx="2"/>
    <path d="M3 10h18"/>
  </g>
  <g transform="translate(826 604) scale(1.35)" fill="none" stroke="#ffffff" stroke-linecap="round" stroke-linejoin="round" stroke-width="2.7">
    <path d="M11.525 2.295a.53.53 0 0 1 .95 0l2.31 4.679a2.123 2.123 0 0 0 1.595 1.16l5.166.756a.53.53 0 0 1 .294.904l-3.736 3.638a2.123 2.123 0 0 0-.611 1.878l.882 5.14a.53.53 0 0 1-.771.56l-4.618-2.428a2.122 2.122 0 0 0-1.973 0L6.396 21.01a.53.53 0 0 1-.77-.56l.881-5.139a2.122 2.122 0 0 0-.611-1.879L2.16 9.795a.53.53 0 0 1 .294-.906l5.165-.755a2.122 2.122 0 0 0 1.597-1.16z"/>
  </g>

  <circle cx="512" cy="428" r="54" fill="#347be0" stroke="#ffffff" stroke-width="12"/>

  <g>
    <rect x="294" y="548" width="32" height="300" rx="16" fill="#123b70"/>
    <rect x="698" y="548" width="32" height="300" rx="16" fill="#123b70"/>
    <rect x="310" y="696" width="404" height="32" fill="#123b70"/>
    <rect x="310" y="774" width="404" height="58" fill="#123b70"/>
    <rect x="286" y="828" width="452" height="32" rx="16" fill="#123b70"/>
    <rect x="322" y="854" width="58" height="38" rx="12" fill="#123b70"/>
    <rect x="644" y="854" width="58" height="38" rx="12" fill="#123b70"/>

    <rect x="348" y="738" width="150" height="84" rx="8" fill="#ff5a55"/>
    <rect x="348" y="780" width="150" height="12" fill="#ff8a7d"/>
    <rect x="520" y="738" width="154" height="84" rx="8" fill="#1c58a5"/>
    <rect x="542" y="796" width="46" height="10" rx="5" fill="#85b8f3"/>

    <rect x="352" y="558" width="59" height="146" rx="8" fill="#1c58a5"/>
    <rect x="352" y="580" width="59" height="20" fill="#347be0"/>
    <rect x="362" y="658" width="40" height="10" rx="5" fill="#85b8f3"/>
    <rect x="424" y="536" width="60" height="168" rx="8" fill="#8b53d8"/>
    <rect x="424" y="562" width="60" height="16" fill="#b28ae5"/>
    <rect x="500" y="518" width="64" height="186" rx="8" fill="#4fc07b"/>
    <rect x="500" y="538" width="64" height="18" fill="#a1dfb9"/>
    <g transform="rotate(-13 626 616)">
      <rect x="592" y="536" width="58" height="166" rx="8" fill="#ffb020"/>
      <rect x="592" y="674" width="58" height="20" fill="#ffffff"/>
    </g>
  </g>
  </g>
</svg>
